<?xml version="1.0" encoding="UTF-8"?>
<svg id="Layer_1" xmlns="http://www.w3.org/2000/svg" viewBox="0 0 1920 1080">
  <defs>
    <style>
      .cls-1 {
        fill: #b9b7b7;
      }

      .cls-2 {
        fill: #d97d7e;
      }

      .cls-3 {
        fill: #252120;
      }

      .cls-4 {
        fill: #a15f60;
      }

      .cls-5 {
        fill: #7f6060;
      }

      .cls-6 {
        fill: #744747;
      }

      .cls-7 {
        fill: #fefefe;
      }

      .cls-8 {
        fill: #e2e1e1;
      }

      .cls-9 {
        fill: #524b4a;
      }
    </style>
  </defs>
  <path class="cls-7" d="M793.15,237.92c16.01,0,32.03,0,48.04-.02.64,0,.77.13.77.77-.02,23.25-.02,46.49,0,69.74,0,.64-.13.77-.77.77-32.03-.02-64.05-.02-96.08,0-.64,0-.77-.12-.77-.77.02-23.25.02-46.49,0-69.74,0-.64.13-.77.77-.77,16.01.02,32.03.02,48.04.02Z"/>
  <path class="cls-9" d="M797.06,266.82c-3.82.08-7.63-.16-11.43-.58-5.83-.64-11.53-1.96-17.21-3.38-1.52-.38-3.02-.85-4.42-1.58-.33-.17-.67-.32-.78-.72-.21-.32-.22-.63.02-.94.77-.87,1.8-.63,2.69-.45,2.27.46,4.51,1.07,6.76,1.61,3.68.88,7.39,1.6,11.13,2.18,3.07.48,6.17.66,9.25,1.01,4.81.55,9.62.55,14.43.24,1.58-.1,3.15-.32,4.74-.3.67,0,1.28.21,1.88.46.31.13.62.29.65.69.04.45-.3.64-.62.82-1.08.61-2.3.76-3.5.81-4.1.17-8.2.45-12.31.36-.31,0-.62.03-.9-.17-.11-.17-.1-.32.06-.45.4-.23.84-.18,1.27-.18,3.85.03,7.7.02,11.54-.33,1.02-.09,2.04-.2,3.01-.55.11-.08.34-.07.3-.27-.02-.11-.19-.13-.3-.18-1.39-.31-2.82-.29-4.19-.12-3.17.41-6.34.35-9.51.31-5.36-.07-10.68-.6-15.98-1.37-5.52-.81-10.95-2.04-16.35-3.46-.9-.24-1.83-.39-2.77-.34-.14.05-.34.03-.37.21-.04.23.2.26.35.36,2.2,1.33,4.7,1.81,7.14,2.39,3.93.94,7.89,1.78,11.9,2.31,3.95.52,7.9.96,11.89.87.55-.01,1.13-.12,1.61.3.12.14.14.29.02.44Z"/>
  <path class="cls-3" d="M812.26,259.62c-.73.68-1.85.8-2.7.32-.28-.16-.42-.36-.42-.64,0-.31.19-.49.47-.62.81-.36,1.62-.32,2.43,0,.22.28.69.49.24.94Z"/>
  <path class="cls-3" d="M770.5,254.82c-.94.49-1.86.58-2.76-.09-.13-.11-.24-.23-.33-.37-.04-.05-.04-.11,0-.16.1-.14.21-.26.34-.36.93-.64,1.85-.62,2.78,0,.26.33.29.66-.02.98Z"/>
  <path class="cls-8" d="M812.26,259.62c.23-.39-.29-.59-.24-.94.36.03.69.13.73.55.04.36-.24.38-.5.39Z"/>
  <path class="cls-9" d="M770.5,254.82c0-.33.01-.65.02-.98.61.34.54.66-.02.98Z"/>
  <path class="cls-1" d="M763.25,259.62c0,.31-.02.62-.02.94-.61-.33-.53-.64.02-.94Z"/>
  <path class="cls-9" d="M767.74,253.84c.01.24-.09.37-.34.36-.08-.3.22-.25.34-.36Z"/>
  <path class="cls-9" d="M767.4,254.36c.26-.01.36.13.33.37-.13-.11-.41-.08-.33-.37Z"/>
  <path class="cls-5" d="M797.06,266.82c0-.1,0-.19.01-.29.14-.1.27-.1.38.04,0,.1,0,.21-.01.31-.13-.02-.26-.04-.39-.06Z"/>
  <path class="cls-2" d="M797.46,266.57c-.13-.01-.26-.03-.38-.04-.31-.19-.65-.17-1-.17-6.65.03-13.2-.76-19.7-2.15-3.37-.72-6.74-1.41-10.01-2.5-.8-.27-1.51-.69-2.19-1.17-.22-.24-.2-.5-.02-.75,1.03-.48,2.03-.04,2.98.2,4.93,1.26,9.89,2.4,14.91,3.24,3.65.61,7.33.9,11.01,1.27,4.16.41,8.31.39,12.47.34,2.2-.02,4.38-.52,6.59-.4.57.03,1.11.06,1.59.4.15.19.16.38-.01.57-1.07.79-2.36.75-3.57.83-4.22.28-8.44.35-12.67.33Z"/>
  <path class="cls-4" d="M764.16,259.78c0,.25.02.5.02.75-.52-.24-.54-.49-.02-.75Z"/>
  <path class="cls-6" d="M813.7,265.41c0-.19,0-.38.01-.57.15.03.31.05.34.24.03.25-.16.29-.35.32Z"/>
</svg>